HIERARCHY
ROOT root
{
	OFFSET 0.000000 0.000000 0.000000
	CHANNELS 6 Xposition Yposition Zposition Zrotation Yrotation Xrotation
	JOINT lhip
	{
		OFFSET 0.058581 -0.082280 -0.017664
		CHANNELS 3 Zrotation Yrotation Xrotation
		JOINT lknee
		{
			OFFSET 0.043451 -0.386469 0.008037
			CHANNELS 3 Zrotation Yrotation Xrotation
			JOINT lankle
			{
				OFFSET -0.014790 -0.426874 -0.037428
				CHANNELS 3 Zrotation Yrotation Xrotation
				JOINT ltoe
				{
					OFFSET 0.041054 -0.060286 0.122042
					CHANNELS 3 Zrotation Yrotation Xrotation
					End Site
					{
						OFFSET 0.000000 0.000000 0.000000
					}
				}
			}
		}
	}
	JOINT rhip
	{
		OFFSET -0.060310 -0.090513 -0.013543
		CHANNELS 3 Zrotation Yrotation Xrotation
		JOINT rknee
		{
			OFFSET -0.043257 -0.383688 -0.004843
			CHANNELS 3 Zrotation Yrotation Xrotation
			JOINT rankle
			{
				OFFSET 0.019056 -0.420046 -0.034562
				CHANNELS 3 Zrotation Yrotation Xrotation
				JOINT rtoe
				{
					OFFSET -0.034840 -0.062106 0.130323
					CHANNELS 3 Zrotation Yrotation Xrotation
					End Site
					{
						OFFSET 0.000000 0.000000 0.000000
					}
				}
			}
		}
	}
	JOINT lowerback
	{
		OFFSET 0.004439 0.124404 -0.038385
		CHANNELS 3 Zrotation Yrotation Xrotation
		JOINT upperback
		{
			OFFSET 0.004488 0.137956 0.026820
			CHANNELS 3 Zrotation Yrotation Xrotation
			JOINT chest
			{
				OFFSET -0.002265 0.056032 0.002855
				CHANNELS 3 Zrotation Yrotation Xrotation
				JOINT lowerneck
				{
					OFFSET -0.013390 0.211636 -0.033468
					CHANNELS 3 Zrotation Yrotation Xrotation
					JOINT upperneck
					{
						OFFSET 0.010113 0.088937 0.050410
						CHANNELS 3 Zrotation Yrotation Xrotation
						End Site
						{
							OFFSET 0.000000 0.000000 0.000000
						}
					}
				}
				JOINT lclavicle
				{
					OFFSET 0.071702 0.114000 -0.018898
					CHANNELS 3 Zrotation Yrotation Xrotation
					JOINT lshoulder
					{
						OFFSET 0.122921 0.045205 -0.019046
						CHANNELS 3 Zrotation Yrotation Xrotation
						JOINT lelbow
						{
							OFFSET 0.255332 -0.015649 -0.022946
							CHANNELS 3 Zrotation Yrotation Xrotation
							JOINT lwrist
							{
								OFFSET 0.265709 0.012698 -0.007375
								CHANNELS 3 Zrotation Yrotation Xrotation
								End Site
								{
									OFFSET 0.000000 0.000000 0.000000
								}
							}
						}
					}
				}
				JOINT rclavicle
				{
					OFFSET -0.082954 0.112472 -0.023707
					CHANNELS 3 Zrotation Yrotation Xrotation
					JOINT rshoulder
					{
						OFFSET -0.113228 0.046853 -0.008472
						CHANNELS 3 Zrotation Yrotation Xrotation
						JOINT relbow
						{
							OFFSET -0.260127 -0.014369 -0.031269
							CHANNELS 3 Zrotation Yrotation Xrotation
							JOINT rwrist
							{
								OFFSET -0.269108 0.006794 -0.006027
								CHANNELS 3 Zrotation Yrotation Xrotation
								End Site
								{
									OFFSET 0.000000 0.000000 0.000000
								}
							}
						}
					}
				}
			}
		}
	}
}
MOTION
Frames: 13
Frame Time: 0.033333
0.083765 -0.074177 0.945222 -176.739254 -0.252552 93.165392 8.657868 0.395854 -21.591567 -6.928406 -3.375423 28.158635 2.827020 4.110210 -13.434771 0.000000 -0.000000 0.000000 -10.857682 -7.158816 -18.946769 -0.150944 -2.921508 26.268161 2.599819 -3.753487 -13.845349 0.000000 -0.000000 0.000000 1.774175 4.353000 19.585959 3.627791 -4.877091 4.934994 2.366120 -1.049513 -3.475201 0.014114 9.038169 11.688478 3.136158 2.105196 18.611640 -15.544995 -29.101275 4.849318 -80.093552 -30.437095 28.810639 1.481080 -14.354822 14.727177 -4.158947 11.788621 -33.343395 17.329201 26.788111 8.080700 74.829182 32.928757 18.343642 -12.602756 5.561580 -19.845396 16.985918 6.315134 -52.492569 
0.083330 -0.074159 0.945471 -176.709819 -0.269542 93.115444 8.604619 0.357952 -21.491475 -6.845445 -3.567489 28.138054 2.830274 3.856682 -13.551401 0.000000 -0.000000 0.000000 -10.920758 -7.633915 -19.092391 -0.130343 -3.902006 26.430499 2.531868 -3.960944 -13.225580 0.000000 -0.000000 0.000000 1.913662 4.410116 19.697278 3.556825 -4.946330 4.762356 2.359197 -1.004970 -3.391264 -0.074708 9.015623 11.660964 3.210521 2.066119 18.829070 -15.462319 -29.335471 4.959930 -80.118108 -30.514066 28.570121 1.542601 -14.123595 14.563662 -4.144590 11.633467 -32.974139 17.383684 26.801771 8.241646 74.844266 32.970446 18.167442 -12.680306 5.648088 -19.831897 16.604432 6.084797 -52.503313 
0.083005 -0.074039 0.945610 -176.610551 -0.236269 93.150058 8.626423 0.496997 -21.657446 -6.928876 -3.267152 28.175067 2.916075 3.971765 -13.405063 0.000000 -0.000000 0.000000 -10.917711 -7.693857 -18.926375 -0.098485 -3.975979 26.148867 2.647836 -3.992051 -13.041873 0.000000 -0.000000 0.000000 1.970124 4.438791 19.608939 3.630814 -4.928940 4.724255 2.435507 -1.088166 -3.346402 -0.198964 9.138406 11.730043 3.186000 2.125074 18.835777 -15.444959 -29.427234 4.999584 -80.230091 -30.617528 28.566525 1.690652 -13.805265 14.426513 -4.696255 11.468351 -32.713844 17.328687 26.747472 8.251293 74.885058 32.990607 18.127650 -12.593573 5.555749 -19.832455 16.997125 6.242035 -52.729151 
0.082417 -0.073920 0.945553 -176.545631 -0.253572 93.219317 8.632134 0.339162 -21.688108 -6.875764 -3.521374 28.195692 2.878858 3.676043 -13.551191 0.000000 -0.000000 0.000000 -10.975237 -7.729159 -18.934755 -0.092066 -3.974791 26.072332 2.744744 -4.009375 -12.955423 0.000000 -0.000000 0.000000 2.001131 4.499218 19.460650 3.704325 -4.981834 4.799557 2.474283 -1.091095 -3.338203 -0.292996 9.253637 11.690844 3.116442 2.082445 18.830490 -15.340945 -29.387269 4.910830 -80.338879 -30.675798 28.605933 1.658156 -13.668412 14.434707 -4.786430 11.482946 -32.440779 17.399247 26.701985 8.232890 74.912398 33.033700 18.111066 -12.698207 5.454613 -20.117842 17.290849 6.221925 -52.337594 
0.082199 -0.073768 0.945488 -176.554191 -0.245790 93.217600 8.666434 0.370546 -21.679973 -6.888709 -3.494139 28.179867 2.843383 3.550329 -13.535457 0.000000 -0.000000 0.000000 -11.009661 -7.705435 -18.860476 -0.071823 -4.028728 25.975854 2.766169 -3.964320 -12.938475 0.000000 -0.000000 0.000000 1.996000 4.521566 19.397067 3.744178 -4.956949 4.865436 2.479315 -1.056469 -3.338562 -0.258060 9.372978 11.723790 3.042057 2.010398 18.773271 -15.194970 -29.347996 4.924443 -80.400284 -30.761697 28.600309 1.757987 -13.658847 14.600960 -5.515372 11.118225 -32.473045 17.415865 26.655725 8.250829 75.029689 33.128005 18.128661 -12.823374 5.408771 -20.110091 17.330693 6.261803 -52.279676 
0.081762 -0.073621 0.945511 -176.575554 -0.268743 93.203664 8.650880 0.461898 -21.677812 -7.026249 -3.144451 28.075816 2.866615 3.806030 -13.386295 0.000000 -0.000000 0.000000 -11.062576 -7.718733 -18.831049 -0.083497 -4.054074 25.953546 2.746864 -3.951921 -12.917299 0.000000 -0.000000 0.000000 1.956578 4.565775 19.353104 3.812427 -4.927428 4.882723 2.505442 -1.039350 -3.309522 -0.234206 9.458075 11.702473 2.928522 1.898229 18.824506 -15.113767 -29.341423 4.857864 -80.332513 -30.772477 28.623934 1.635072 -13.690622 14.587244 -5.561042 10.865141 -32.765787 17.424535 26.577112 8.316267 75.050180 33.201519 18.220742 -12.851761 5.556928 -20.024780 17.055705 6.145650 -52.596145 
0.081190 -0.073320 0.945535 -176.682842 -0.279952 93.148556 8.613487 0.493623 -21.579867 -7.056585 -3.144788 28.103650 2.869331 3.868670 -13.478573 0.000000 -0.000000 0.000000 -11.101158 -7.732810 -18.786043 -0.060935 -3.994890 25.945839 2.711207 -3.895289 -12.853753 0.000000 -0.000000 0.000000 1.967497 4.651010 19.305363 3.836785 -4.831310 4.925418 2.528892 -1.040483 -3.252591 -0.293447 9.511048 11.793487 2.889264 1.878140 18.674668 -15.136167 -29.307074 4.838090 -80.163730 -30.744149 28.623676 1.488661 -13.969067 14.614311 -5.410723 10.929039 -32.910681 17.366181 26.553895 8.328614 75.016217 33.187836 18.283429 -12.782722 5.752709 -19.958910 16.811568 5.940704 -53.080251 
0.080588 -0.073152 0.945425 -176.795036 -0.289420 93.147329 8.569088 0.469271 -21.569226 -7.034437 -3.163900 28.127670 2.927909 3.898037 -13.479666 0.000000 -0.000000 0.000000 -11.132171 -7.729717 -18.832312 -0.072007 -3.878480 25.999570 2.689380 -3.777170 -12.809180 0.000000 -0.000000 0.000000 2.008612 4.619826 19.268958 3.807245 -4.817188 5.019841 2.462477 -0.939673 -3.336351 -0.272184 9.494840 11.762330 2.863879 1.895424 18.734043 -15.152011 -29.184560 4.805638 -80.164603 -30.707501 28.507629 1.505748 -13.907999 14.611536 -5.488707 10.776063 -32.877673 17.384716 26.628871 8.384925 75.089877 33.218646 18.297722 -12.843680 5.716659 -20.044698 16.913361 6.067829 -52.899407 
0.080161 -0.072974 0.945323 -176.881901 -0.303748 93.144866 8.531695 0.521268 -21.607655 -7.064847 -3.071099 28.194441 2.949656 4.022977 -13.448035 0.000000 -0.000000 0.000000 -11.136935 -7.722693 -18.831642 -0.144273 -3.885441 25.966993 2.689122 -3.739182 -12.844106 0.000000 -0.000000 0.000000 2.035575 4.663959 19.195682 3.786840 -4.767549 5.017619 2.441063 -0.975967 -3.253500 -0.253134 9.551530 11.856319 2.851979 1.777109 18.632644 -15.137712 -29.171318 4.883210 -79.976050 -30.672115 28.465660 1.419034 -14.180097 14.680182 -5.588852 10.642016 -33.227445 17.451674 26.600391 8.437311 75.119844 33.333566 18.328528 -12.779332 5.706627 -20.051727 16.439420 5.937650 -53.032262 
0.079683 -0.072732 0.945228 -177.003070 -0.251054 93.169777 8.579198 0.473455 -21.659709 -7.049716 -3.002585 28.311377 2.946377 4.041482 -13.534379 0.000000 -0.000000 0.000000 -11.085564 -7.680955 -18.896471 -0.180897 -3.891144 25.983524 2.732885 -3.741023 -12.811532 0.000000 -0.000000 0.000000 2.031727 4.643846 19.151075 3.837077 -4.778952 5.013163 2.453548 -0.939538 -3.274176 -0.284527 9.588417 11.902479 2.817561 1.750723 18.636097 -15.122856 -29.105313 4.964168 -80.051491 -30.621249 28.461953 1.515735 -14.206897 14.788498 -5.839983 10.389262 -33.437597 17.432770 26.574273 8.408332 75.361411 33.318363 18.441798 -12.918237 5.624208 -20.095905 16.443952 5.911190 -53.079822 
0.079408 -0.072525 0.945235 -177.059650 -0.227100 93.129494 8.545210 0.548111 -21.669893 -7.023756 -2.937995 28.453770 2.967446 4.150297 -13.582407 0.000000 -0.000000 0.000000 -11.095478 -7.697248 -18.846808 -0.139629 -3.897683 25.970633 2.808981 -3.680420 -12.802680 0.000000 -0.000000 0.000000 2.000870 4.642483 19.160786 3.847614 -4.790274 5.044040 2.472707 -0.928740 -3.291756 -0.247416 9.604437 11.896649 2.838260 1.779552 18.698765 -15.085878 -29.137229 5.006124 -80.086499 -30.630233 28.486689 1.561011 -14.173850 14.798473 -5.906273 10.229102 -33.658117 17.460624 26.651931 8.430530 75.325846 33.199258 18.470982 -12.957019 5.743274 -20.019593 16.491522 5.960793 -53.209982 
0.079160 -0.072347 0.945176 -177.149710 -0.170122 93.131032 8.622329 0.502987 -21.643538 -6.982921 -2.987393 28.591411 2.997650 4.014928 -13.739600 0.000000 -0.000000 0.000000 -11.051397 -7.645963 -18.830063 -0.127111 -3.879519 25.927181 2.758375 -3.686221 -12.809226 0.000000 -0.000000 0.000000 1.958767 4.615288 19.146096 3.890303 -4.796764 5.026178 2.513224 -0.864240 -3.312364 -0.275860 9.622456 11.966582 2.891291 1.841869 18.735270 -15.046098 -29.091920 5.021347 -80.214636 -30.639186 28.515522 1.601320 -14.175467 14.804882 -6.035456 10.242202 -33.658031 17.458276 26.655440 8.510986 75.295690 33.237424 18.450176 -12.929580 5.698785 -20.026945 16.571654 6.065716 -53.234322 
0.078907 -0.072216 0.945187 -177.186540 -0.139709 93.135008 8.638754 0.520716 -21.657574 -6.976972 -2.913519 28.669525 3.022154 4.020082 -13.830410 0.000000 -0.000000 0.000000 -11.071961 -7.679197 -18.797517 -0.032974 -3.841785 25.842094 2.770377 -3.681542 -12.786365 0.000000 -0.000000 0.000000 1.979366 4.669744 19.173320 3.887255 -4.782094 4.958461 2.540542 -0.942605 -3.317726 -0.270759 9.555957 11.947383 2.882002 1.920118 18.805754 -15.156023 -29.096037 5.076894 -80.227726 -30.668590 28.459243 1.592408 -14.080647 14.623257 -5.709926 10.341056 -33.613469 17.434663 26.629445 8.483559 75.320471 33.218019 18.439161 -12.933894 5.656388 -20.160099 16.533981 5.995826 -53.139931 
